# xmcd
#
# Track frame offsets:
#	182
#	11740
#	21700
#	33770
#	45172
#	55075
#	66945
#	81710
#	93250
#	106745
#	122957
#	140375
#	151095
#	166095
#	184545
#	199835
#	214445
#	253895
#	267480
#	284070
#	303120
#	316445
#
# Disc length: 4425
#
# Revision: 1
# Processed by: cddbd v1.5.1PL0 Copyright (c) Steve Scherf et al.
# Submitted via: ExactAudioCopy v0.90b4
# Normalized: r0:DSETVAR1,TDELIM( - )
#
DISCID=3d114716
DTITLE=Various Artist - History Of The Blues
DYEAR=1900
DGENRE=Blues
TTITLE0=John Lee Hooker - Boogie Chillun'
TTITLE1=John Lee Hooker - Dimples
TTITLE2=Jimmy Reed - Little Rain
TTITLE3=Jimmy Reed - Where Can You Be?
TTITLE4=Memphis Slim - Diggin' My Potatoes
TTITLE5=Leadbelly - Boll Weevil Blues
TTITLE6=Leadbelly - In New Orleans
TTITLE7=Lightnin' Hopkins - Sometimes She Will
TTITLE8=Lightnin' Hopkins - Mojo Hand
TTITLE9=B.B. King - It's My Own Fault Baby
TTITLE10=Robert C. Brookes and The Dan Band - How Many More Years You Gonna Dog Me Arround?
TTITLE11=Ray Charles - Hey Now
TTITLE12=Ray Charles - I'm Wonderin' I'm Wonderin'
TTITLE13=Robert C. Brookes and The Dan Band - On The Road Again
TTITLE14=Bessie Smith - Send Me To The 'Lectric Chair
TTITLE15=Bessie Smith - Careless Love
TTITLE16=Billie Holiday - Fine And Mellow
TTITLE17=Billie Holiday - Georgia On My Mind
TTITLE18=Robert C. Brookes and The Dan Band - 'Tain't Nobody's Bizness If I Do
TTITLE19=Robert C. Brookes and The Dan Band - Terraplane Blues
TTITLE20=Elmore James - Dust My Broom
TTITLE21=Elmore James - I Believe
EXTD=
EXTT0=
EXTT1=
EXTT2=
EXTT3=
EXTT4=
EXTT5=
EXTT6=
EXTT7=
EXTT8=
EXTT9=
EXTT10=
EXTT11=
EXTT12=
EXTT13=
EXTT14=
EXTT15=
EXTT16=
EXTT17=
EXTT18=
EXTT19=
EXTT20=
EXTT21=
PLAYORDER=
